<?xml version="1.0" encoding="UTF-8" standalone="no"?>
<!-- Created with Inkscape (http://www.inkscape.org/) -->

<svg
   width="290mm"
   height="150mm"
   viewBox="0 0 290 150"
   version="1.1"
   id="svg1"
   xml:space="preserve"
   inkscape:version="1.3.1 (9b9bdc1480, 2023-11-25, custom)"
   sodipodi:docname="roveri_logo"
   xmlns:inkscape="http://www.inkscape.org/namespaces/inkscape"
   xmlns:sodipodi="http://sodipodi.sourceforge.net/DTD/sodipodi-0.dtd"
   xmlns="http://www.w3.org/2000/svg"
   xmlns:svg="http://www.w3.org/2000/svg"><sodipodi:namedview
     id="namedview1"
     pagecolor="#ffffff"
     bordercolor="#000000"
     borderopacity="0.25"
     inkscape:showpageshadow="2"
     inkscape:pageopacity="0.0"
     inkscape:pagecheckerboard="0"
     inkscape:deskcolor="#d1d1d1"
     inkscape:document-units="mm"
     inkscape:zoom="0.89571167"
     inkscape:cx="548.72568"
     inkscape:cy="405.26434"
     inkscape:window-width="1850"
     inkscape:window-height="1016"
     inkscape:window-x="70"
     inkscape:window-y="27"
     inkscape:window-maximized="1"
     inkscape:current-layer="layer1" /><defs
     id="defs1" /><g
     id="text1"
     style="font-size:22.5778px;text-align:center;text-anchor:middle;fill:#0137a9;stroke-width:0.1"
     inkscape:label="projectName"
     aria-label="Autonomiset &#10;ajoneuvot &#10;esiselvityshanke"
     transform="translate(0.63147512,-28.832135)"><path
       style="font-family:FreeSans;-inkscape-font-specification:FreeSans;fill:#0359a9;fill-opacity:1"
       d="m 146.17505,55.713951 h -6.34437 l -1.73849,4.944538 h -2.2352 l 5.87023,-16.459217 h 2.70934 l 5.77991,16.459217 h -2.34809 z m -0.58703,-1.761069 -2.52871,-7.495829 -2.70934,7.495829 z m 15.7367,6.705607 h -1.69334 V 59.01031 q -0.83538,1.174045 -1.73849,1.670757 -0.90311,0.496712 -2.21262,0.496712 -1.71592,0 -2.7545,-0.880535 -1.016,-0.880534 -1.016,-2.348091 v -9.121431 h 1.87396 v 8.376364 q 0,1.061156 0.65476,1.693335 0.65475,0.632178 1.78364,0.632178 1.46756,0 2.34809,-1.083734 0.88054,-1.106312 0.88054,-2.912537 v -6.705606 h 1.87396 z m 7.22486,-11.830767 v 1.53529 h -1.94169 v 8.105431 q 0,0.632178 0.2032,0.857956 0.22578,0.2032 0.83538,0.2032 0.56444,0 0.90311,-0.09031 v 1.580446 q -0.88053,0.158045 -1.53529,0.158045 -1.10631,0 -1.69333,-0.496712 -0.58703,-0.474134 -0.58703,-1.377246 v -8.940809 h -1.60302 v -1.53529 h 1.60302 v -3.251204 h 1.87396 v 3.251204 z m 6.45723,-0.338667 q 2.55129,0 3.95111,1.693335 1.4224,1.670757 1.4224,4.741338 0,2.912536 -1.44498,4.583293 -1.4224,1.670758 -3.90596,1.670758 -2.52871,0 -3.95111,-1.670758 -1.39982,-1.693335 -1.39982,-4.673604 0,-2.98027 1.4224,-4.651027 1.4224,-1.693335 3.90596,-1.693335 z m 0.0226,1.73849 q -1.58044,0 -2.48355,1.241779 -0.90312,1.219202 -0.90312,3.364093 0,2.144891 0.90312,3.38667 0.90311,1.219201 2.48355,1.219201 1.55787,0 2.46099,-1.219201 0.92568,-1.241779 0.92568,-3.318937 0,-2.190047 -0.90311,-3.431826 -0.88053,-1.241779 -2.48356,-1.241779 z m 7.38291,-1.399823 h 1.73849 v 1.986846 q 0.79022,-1.241779 1.69334,-1.783646 0.92569,-0.541867 2.2352,-0.541867 1.71591,0 2.73191,0.880534 1.016,0.880534 1.016,2.348091 v 8.940809 h -1.87395 v -8.195741 q 0,-1.061157 -0.65476,-1.693336 -0.65476,-0.632178 -1.78365,-0.632178 -1.44498,0 -2.32551,1.106312 -0.88053,1.083735 -0.88053,2.889959 v 6.524984 h -1.89654 z m 16.77528,-0.338667 q 2.55129,0 3.95112,1.693335 1.4224,1.670757 1.4224,4.741338 0,2.912536 -1.44498,4.583293 -1.4224,1.670758 -3.90596,1.670758 -2.52872,0 -3.95112,-1.670758 -1.39982,-1.693335 -1.39982,-4.673604 0,-2.98027 1.4224,-4.651027 1.4224,-1.693335 3.90596,-1.693335 z m 0.0226,1.73849 q -1.58045,0 -2.48356,1.241779 -0.90311,1.219202 -0.90311,3.364093 0,2.144891 0.90311,3.38667 0.90311,1.219201 2.48356,1.219201 1.55787,0 2.46098,-1.219201 0.92569,-1.241779 0.92569,-3.318937 0,-2.190047 -0.90311,-3.431826 -0.88054,-1.241779 -2.48356,-1.241779 z m 7.3829,-1.399823 h 1.73849 v 1.670757 q 0.76765,-1.061157 1.60303,-1.535291 0.85796,-0.474133 2.032,-0.474133 2.19005,0 3.18347,1.806224 0.83538,-0.993424 1.64818,-1.399824 0.8128,-0.4064 1.98685,-0.4064 1.64818,0 2.52871,0.857956 0.90311,0.835379 0.90311,2.438403 v 8.873075 h -1.89653 v -8.150586 q 0,-1.12889 -0.58703,-1.738491 -0.56444,-0.632178 -1.60302,-0.632178 -1.15147,0 -1.96427,0.903112 -0.8128,0.903112 -0.8128,2.190047 v 7.428096 h -1.89653 v -8.150586 q 0,-1.12889 -0.58703,-1.738491 -0.56444,-0.632178 -1.60302,-0.632178 -1.15147,0 -1.96427,0.903112 -0.8128,0.903112 -0.8128,2.190047 v 7.428096 h -1.89654 z m 20.36514,0 v 11.830767 h -1.87395 V 48.827722 Z m 0,-4.62845 v 2.37067 h -1.89653 v -2.37067 z m 4.38006,12.93708 q 0.13546,1.061157 0.72248,1.693335 0.60961,0.609601 2.16747,0.609601 1.24178,0 1.98685,-0.496712 0.76765,-0.519289 0.76765,-1.354668 0,-0.654756 -0.42898,-1.038579 -0.42898,-0.383822 -1.39983,-0.6096 l -1.76106,-0.428978 q -2.09974,-0.496712 -2.93512,-1.241779 -0.8128,-0.767646 -0.8128,-2.167469 0,-1.64818 1.24178,-2.619025 1.24178,-0.993423 3.29636,-0.993423 2.05458,0 3.16089,0.948267 1.10631,0.948268 1.12889,2.686759 h -1.98685 q -0.0677,-1.896536 -2.37067,-1.896536 -1.15146,0 -1.8288,0.496712 -0.67733,0.474134 -0.67733,1.286935 0,0.632178 0.51929,1.038578 0.51929,0.383823 1.67076,0.654757 l 1.80622,0.428978 q 1.76107,0.428978 2.55129,1.219201 0.79022,0.767645 0.79022,2.077158 0,1.715913 -1.33209,2.731914 -1.30951,1.016001 -3.54471,1.016001 -4.58329,0 -4.71876,-4.041427 z m 19.73295,-1.761068 h -8.71503 q 0.0452,1.85138 0.94827,2.957692 0.92569,1.106312 2.52871,1.106312 2.30294,0 3.09316,-2.370669 h 1.89654 q -0.36125,1.941691 -1.69334,3.025425 -1.33209,1.083735 -3.36409,1.083735 -2.48356,0 -3.92854,-1.670758 -1.44498,-1.693335 -1.44498,-4.605871 0,-2.912536 1.46756,-4.651027 1.49013,-1.761068 3.95111,-1.761068 5.26063,0 5.26063,6.886229 z m -8.66987,-1.535291 h 6.66045 q 0,-1.53529 -0.92569,-2.573869 -0.92569,-1.038579 -2.34809,-1.038579 -1.42241,0 -2.3481,0.993424 -0.92569,0.970845 -1.03857,2.619024 z m 15.21742,-5.012271 v 1.53529 h -1.94169 v 8.105431 q 0,0.632178 0.2032,0.857956 0.22577,0.2032 0.83537,0.2032 0.56445,0 0.90312,-0.09031 v 1.580446 q -0.88054,0.158045 -1.53529,0.158045 -1.10632,0 -1.69334,-0.496712 -0.58702,-0.474134 -0.58702,-1.377246 v -8.940809 h -1.60303 v -1.53529 h 1.60303 v -3.251204 h 1.87396 v 3.251204 z"
       id="path26" /><path
       style="font-family:FreeSans;-inkscape-font-specification:FreeSans;fill:#0359a9;fill-opacity:1"
       d="m 150.15998,81.457935 q 0.13547,-3.838226 4.74134,-3.838226 2.19005,0 3.31894,0.835379 1.12889,0.812801 1.12889,2.393247 v 6.953962 q 0,0.92569 1.016,0.92569 0.2032,0 0.4064,-0.04515 v 1.422401 q -0.79022,0.2032 -1.28693,0.2032 -0.90312,0 -1.37725,-0.428978 -0.45156,-0.4064 -0.56444,-1.309512 -1.89654,1.73849 -4.01885,1.73849 -1.78365,0 -2.84481,-0.948267 -1.03857,-0.948268 -1.03857,-2.551292 0,-0.519289 0.0903,-0.948267 0.11289,-0.428979 0.22577,-0.745068 0.13547,-0.338667 0.45156,-0.609601 0.31609,-0.293511 0.51929,-0.474133 0.22578,-0.180623 0.72249,-0.338667 0.51929,-0.180623 0.79022,-0.248356 0.27094,-0.09031 0.94827,-0.2032 0.67733,-0.112889 0.99342,-0.158045 0.31609,-0.04516 1.12889,-0.158045 1.10632,-0.135466 1.53529,-0.428978 0.42898,-0.293511 0.42898,-0.880534 v -0.496712 q 0,-0.857956 -0.69991,-1.309512 -0.67733,-0.451556 -1.94169,-0.451556 -1.30951,0 -1.98685,0.519289 -0.67733,0.496712 -0.79022,1.580446 z m 3.7705,7.202319 q 1.55787,0 2.55129,-0.812801 0.99342,-0.835379 0.99342,-1.783646 v -2.122314 q -0.56444,0.270934 -1.71591,0.451556 -1.12889,0.180623 -1.96427,0.31609 -0.83538,0.135467 -1.51271,0.654756 -0.67734,0.496712 -0.67734,1.399824 0,0.903112 0.6096,1.399823 0.60961,0.496712 1.71592,0.496712 z m 9.27946,-10.701878 h 1.87395 v 14.291748 q 0,2.46098 -3.22862,2.46098 -0.29351,0 -0.63218,-0.06773 V 93.04035 q 0.27093,0.04516 0.51929,0.04516 0.8128,0 1.12889,-0.361245 0.33867,-0.338667 0.33867,-1.219201 z m 1.87395,-4.628449 v 2.370669 h -1.87395 v -2.370669 z m 7.63126,4.289782 q 2.55129,0 3.95111,1.693335 1.42241,1.670758 1.42241,4.741338 0,2.912537 -1.44498,4.583294 -1.4224,1.670757 -3.90596,1.670757 -2.52872,0 -3.95112,-1.670757 -1.39982,-1.693335 -1.39982,-4.673605 0,-2.980269 1.4224,-4.651027 1.4224,-1.693335 3.90596,-1.693335 z m 0.0226,1.738491 q -1.58045,0 -2.48356,1.241779 -0.90311,1.219201 -0.90311,3.364092 0,2.144891 0.90311,3.38667 0.90311,1.219202 2.48356,1.219202 1.55787,0 2.46098,-1.219202 0.92569,-1.241779 0.92569,-3.318936 0,-2.190047 -0.90311,-3.431826 -0.88054,-1.241779 -2.48356,-1.241779 z m 7.3829,-1.399824 h 1.73849 v 1.986847 q 0.79023,-1.241779 1.69334,-1.783647 0.92569,-0.541867 2.2352,-0.541867 1.71591,0 2.73192,0.880534 1.016,0.880535 1.016,2.348092 v 8.940809 h -1.87396 v -8.195742 q 0,-1.061156 -0.65476,-1.693335 -0.65475,-0.632178 -1.78364,-0.632178 -1.44498,0 -2.32552,1.106312 -0.88053,1.083734 -0.88053,2.889958 v 6.524985 h -1.89654 z m 22.12622,6.547562 h -8.71503 q 0.0452,1.85138 0.94827,2.957692 0.92569,1.106313 2.52871,1.106313 2.30294,0 3.09316,-2.370669 h 1.89654 q -0.36125,1.94169 -1.69334,3.025425 -1.33209,1.083734 -3.36409,1.083734 -2.48356,0 -3.92854,-1.670757 -1.44498,-1.693335 -1.44498,-4.605871 0,-2.912537 1.46756,-4.651027 1.49013,-1.761069 3.95111,-1.761069 5.26063,0 5.26063,6.886229 z m -8.66987,-1.53529 h 6.66045 q 0,-1.53529 -0.92569,-2.573869 -0.92569,-1.038579 -2.34809,-1.038579 -1.4224,0 -2.34809,0.993423 -0.92569,0.970846 -1.03858,2.619025 z m 20.11679,6.818496 h -1.69333 v -1.64818 q -0.83538,1.174046 -1.73849,1.670758 -0.90312,0.496711 -2.21263,0.496711 -1.71591,0 -2.75449,-0.880534 -1.016,-0.880534 -1.016,-2.348091 v -9.121432 h 1.87396 v 8.376364 q 0,1.061157 0.65475,1.693335 0.65476,0.632179 1.78365,0.632179 1.46756,0 2.34809,-1.083735 0.88053,-1.106312 0.88053,-2.912536 v -6.705607 h 1.87396 z m 7.78932,0 h -2.05458 l -4.15432,-11.830768 h 2.12231 l 3.1609,9.595566 3.34151,-9.595566 h 2.12231 z m 10.76957,-12.169435 q 2.5513,0 3.95112,1.693335 1.4224,1.670758 1.4224,4.741338 0,2.912537 -1.44498,4.583294 -1.4224,1.670757 -3.90596,1.670757 -2.52871,0 -3.95111,-1.670757 -1.39983,-1.693335 -1.39983,-4.673605 0,-2.980269 1.4224,-4.651027 1.42241,-1.693335 3.90596,-1.693335 z m 0.0226,1.738491 q -1.58044,0 -2.48356,1.241779 -0.90311,1.219201 -0.90311,3.364092 0,2.144891 0.90311,3.38667 0.90312,1.219202 2.48356,1.219202 1.55787,0 2.46098,-1.219202 0.92569,-1.241779 0.92569,-3.318936 0,-2.190047 -0.90311,-3.431826 -0.88053,-1.241779 -2.48356,-1.241779 z m 11.89847,-1.399824 v 1.535291 h -1.94169 v 8.10543 q 0,0.632179 0.2032,0.857957 0.22578,0.2032 0.83538,0.2032 0.56444,0 0.90311,-0.09031 v 1.580446 q -0.88054,0.158044 -1.53529,0.158044 -1.10631,0 -1.69334,-0.496711 -0.58702,-0.474134 -0.58702,-1.377246 v -8.940809 h -1.60302 v -1.535291 h 1.60302 v -3.251203 h 1.87396 v 3.251203 z"
       id="path27" /><path
       style="font-family:FreeSans;-inkscape-font-specification:FreeSans;fill:#0359a9;fill-opacity:1"
       d="m 130.59639,113.63659 h -8.71503 q 0.0452,1.85138 0.94827,2.9577 0.92569,1.10631 2.52871,1.10631 2.30294,0 3.09316,-2.37067 h 1.89654 q -0.36125,1.94169 -1.69334,3.02542 -1.33209,1.08374 -3.36409,1.08374 -2.48356,0 -3.92854,-1.67076 -1.44498,-1.69333 -1.44498,-4.60587 0,-2.91254 1.46756,-4.65103 1.49013,-1.76107 3.95111,-1.76107 5.26063,0 5.26063,6.88623 z m -8.66987,-1.53529 h 6.66045 q 0,-1.53529 -0.92569,-2.57387 -0.92569,-1.03858 -2.34809,-1.03858 -1.42241,0 -2.3481,0.99343 -0.92569,0.97084 -1.03857,2.61902 z m 12.10168,3.29636 q 0.13546,1.06116 0.72248,1.69334 0.60961,0.6096 2.16747,0.6096 1.24178,0 1.98685,-0.49671 0.76765,-0.51929 0.76765,-1.35467 0,-0.65476 -0.42898,-1.03858 -0.42898,-0.38382 -1.39983,-0.6096 l -1.76106,-0.42898 q -2.09974,-0.49671 -2.93512,-1.24178 -0.8128,-0.76764 -0.8128,-2.16747 0,-1.64818 1.24178,-2.61902 1.24178,-0.99343 3.29636,-0.99343 2.05458,0 3.16089,0.94827 1.10631,0.94827 1.12889,2.68676 h -1.98685 q -0.0677,-1.89654 -2.37067,-1.89654 -1.15146,0 -1.8288,0.49672 -0.67733,0.47413 -0.67733,1.28693 0,0.63218 0.51929,1.03858 0.51929,0.38382 1.67076,0.65476 l 1.80622,0.42897 q 1.76107,0.42898 2.55129,1.21921 0.79022,0.76764 0.79022,2.07715 0,1.71592 -1.33209,2.73192 -1.30951,1.016 -3.54471,1.016 -4.58329,0 -4.71876,-4.04143 z m 11.76299,-8.30863 v 11.83077 h -1.87396 v -11.83077 z m 0,-4.62845 v 2.37067 h -1.89654 v -2.37067 z m 4.38005,12.93708 q 0.13547,1.06116 0.72249,1.69334 0.6096,0.6096 2.16747,0.6096 1.24178,0 1.98684,-0.49671 0.76765,-0.51929 0.76765,-1.35467 0,-0.65476 -0.42898,-1.03858 -0.42898,-0.38382 -1.39982,-0.6096 l -1.76107,-0.42898 q -2.09974,-0.49671 -2.93511,-1.24178 -0.81281,-0.76764 -0.81281,-2.16747 0,-1.64818 1.24178,-2.61902 1.24178,-0.99343 3.29636,-0.99343 2.05458,0 3.16089,0.94827 1.10632,0.94827 1.12889,2.68676 h -1.98684 q -0.0677,-1.89654 -2.37067,-1.89654 -1.15147,0 -1.8288,0.49672 -0.67734,0.47413 -0.67734,1.28693 0,0.63218 0.51929,1.03858 0.51929,0.38382 1.67076,0.65476 l 1.80622,0.42897 q 1.76107,0.42898 2.5513,1.21921 0.79022,0.76764 0.79022,2.07715 0,1.71592 -1.33209,2.73192 -1.30951,1.016 -3.54472,1.016 -4.58329,0 -4.71876,-4.04143 z m 19.73296,-1.76107 h -8.71504 q 0.0452,1.85138 0.94827,2.9577 0.92569,1.10631 2.52872,1.10631 2.30293,0 3.09315,-2.37067 h 1.89654 q -0.36125,1.94169 -1.69334,3.02542 -1.33209,1.08374 -3.36409,1.08374 -2.48356,0 -3.92854,-1.67076 -1.44497,-1.69333 -1.44497,-4.60587 0,-2.91254 1.46755,-4.65103 1.49014,-1.76107 3.95112,-1.76107 5.26063,0 5.26063,6.88623 z m -8.66988,-1.53529 h 6.66045 q 0,-1.53529 -0.92569,-2.57387 -0.92569,-1.03858 -2.34809,-1.03858 -1.4224,0 -2.34809,0.99343 -0.92569,0.97084 -1.03858,2.61902 z m 12.59839,-9.64072 v 16.45922 h -1.89653 v -16.45922 z m 8.01509,16.45922 h -2.05457 l -4.15432,-11.83077 h 2.12231 l 3.1609,9.59557 3.34151,-9.59557 h 2.12231 z m 8.15055,-11.83077 v 11.83077 h -1.87395 v -11.83077 z m 0,-4.62845 v 2.37067 h -1.89653 v -2.37067 z m 7.49579,4.62845 v 1.53529 h -1.94169 v 8.10543 q 0,0.63218 0.2032,0.85796 0.22578,0.2032 0.83538,0.2032 0.56444,0 0.90311,-0.0903 v 1.58044 q -0.88053,0.15805 -1.53529,0.15805 -1.10631,0 -1.69333,-0.49671 -0.58703,-0.47414 -0.58703,-1.37725 v -8.94081 h -1.60302 v -1.53529 h 1.60302 v -3.2512 h 1.87396 v 3.2512 z m 8.98594,0 h 2.03201 l -5.26063,14.31433 q -0.92569,2.4384 -3.04801,2.4384 -0.69991,0 -1.26435,-0.29351 v -1.69334 q 0.6096,0.13547 0.99342,0.13547 0.58702,0 0.92569,-0.27093 0.33867,-0.24836 0.58702,-0.88054 l 0.72249,-1.87396 -3.99627,-11.87592 h 2.00943 l 3.02542,9.21174 z m 5.01225,8.30863 q 0.13546,1.06116 0.72249,1.69334 0.6096,0.6096 2.16747,0.6096 1.24177,0 1.98684,-0.49671 0.76765,-0.51929 0.76765,-1.35467 0,-0.65476 -0.42898,-1.03858 -0.42898,-0.38382 -1.39983,-0.6096 l -1.76106,-0.42898 q -2.09974,-0.49671 -2.93512,-1.24178 -0.8128,-0.76764 -0.8128,-2.16747 0,-1.64818 1.24178,-2.61902 1.24178,-0.99343 3.29636,-0.99343 2.05458,0 3.16089,0.94827 1.10631,0.94827 1.12889,2.68676 h -1.98684 q -0.0677,-1.89654 -2.37067,-1.89654 -1.15147,0 -1.82881,0.49672 -0.67733,0.47413 -0.67733,1.28693 0,0.63218 0.51929,1.03858 0.51929,0.38382 1.67076,0.65476 l 1.80622,0.42897 q 1.76107,0.42898 2.55129,1.21921 0.79023,0.76764 0.79023,2.07715 0,1.71592 -1.33209,2.73192 -1.30952,1.016 -3.54472,1.016 -4.58329,0 -4.71876,-4.04143 z m 17.24939,-4.6736 q 0,-1.24178 -0.76764,-1.78365 -0.74507,-0.54187 -1.67076,-0.54187 -1.44498,0 -2.32551,1.10632 -0.88054,1.08373 -0.88054,2.88995 v 6.52499 h -1.87395 v -16.45922 h 1.87395 v 6.25405 q 0.83538,-1.08373 1.67076,-1.51271 0.85796,-0.45156 2.12231,-0.45156 1.71592,0 2.70934,0.88054 1.016,0.85795 1.016,2.34809 v 8.94081 h -1.87396 z m 4.42524,-0.13547 q 0.13546,-3.83823 4.74133,-3.83823 2.19005,0 3.31894,0.83538 1.12889,0.8128 1.12889,2.39325 v 6.95396 q 0,0.92569 1.016,0.92569 0.2032,0 0.4064,-0.0451 v 1.4224 q -0.79022,0.2032 -1.28693,0.2032 -0.90311,0 -1.37725,-0.42898 -0.45155,-0.4064 -0.56444,-1.30951 -1.89654,1.73849 -4.01885,1.73849 -1.78365,0 -2.8448,-0.94827 -1.03858,-0.94827 -1.03858,-2.55129 0,-0.51929 0.0903,-0.94827 0.11289,-0.42898 0.22578,-0.74507 0.13546,-0.33866 0.45155,-0.6096 0.31609,-0.29351 0.51929,-0.47413 0.22578,-0.18062 0.72249,-0.33867 0.51929,-0.18062 0.79022,-0.24835 0.27094,-0.0903 0.94827,-0.2032 0.67734,-0.11289 0.99343,-0.15805 0.31608,-0.0452 1.12889,-0.15804 1.10631,-0.13547 1.53529,-0.42898 0.42897,-0.29351 0.42897,-0.88054 v -0.49671 q 0,-0.85795 -0.69991,-1.30951 -0.67733,-0.45156 -1.94169,-0.45156 -1.30951,0 -1.98685,0.51929 -0.67733,0.49672 -0.79022,1.58045 z m 3.77049,7.20232 q 1.55787,0 2.55129,-0.8128 0.99342,-0.83538 0.99342,-1.78365 v -2.12231 q -0.56444,0.27093 -1.71591,0.45155 -1.12889,0.18063 -1.96427,0.31609 -0.83538,0.13547 -1.51271,0.65476 -0.67733,0.49671 -0.67733,1.39982 0,0.90312 0.6096,1.39983 0.6096,0.49671 1.71591,0.49671 z m 8.64728,-10.70188 h 1.73849 v 1.98685 q 0.79022,-1.24178 1.69333,-1.78365 0.92569,-0.54187 2.23521,-0.54187 1.71591,0 2.73191,0.88054 1.016,0.88053 1.016,2.34809 v 8.94081 h -1.87396 v -8.19574 q 0,-1.06116 -0.65475,-1.69334 -0.65476,-0.63218 -1.78365,-0.63218 -1.44498,0 -2.32551,1.10632 -0.88054,1.08373 -0.88054,2.88995 v 6.52499 h -1.89653 z m 13.9982,-4.62845 v 9.64072 l 5.01227,-5.01227 h 2.41583 l -4.10916,4.08658 4.83165,7.74419 H 265.408 l -3.99627,-6.4121 -1.8288,1.80623 v 4.60587 h -1.87396 v -16.45922 z m 19.733,11.17601 h -8.71503 q 0.0452,1.85138 0.94827,2.9577 0.92569,1.10631 2.52872,1.10631 2.30293,0 3.09315,-2.37067 h 1.89654 q -0.36125,1.94169 -1.69334,3.02542 -1.33209,1.08374 -3.36409,1.08374 -2.48356,0 -3.92854,-1.67076 -1.44497,-1.69333 -1.44497,-4.60587 0,-2.91254 1.46755,-4.65103 1.49014,-1.76107 3.95112,-1.76107 5.26062,0 5.26062,6.88623 z m -8.66987,-1.53529 h 6.66045 q 0,-1.53529 -0.92569,-2.57387 -0.92569,-1.03858 -2.34809,-1.03858 -1.4224,0 -2.34809,0.99343 -0.92569,0.97084 -1.03858,2.61902 z"
       id="path28" /></g><g
     inkscape:groupmode="layer"
     id="layer4"
     inkscape:label="SeAMK"
     transform="translate(-5.9107124,-1.8908555)"><g
       id="g2"
       transform="matrix(0.04754835,0,0,0.04754835,107.71222,106.75309)"><path
         d="m 2344,518.52 c 0.71,-1.16 2.63,-1.64 2,-3.56 h 4 c 1.57,3.81 5.26,1.26 9.88,3.8 -6.71,-1 -10.63,2 -15.27,1.6 a 8.52,8.52 0 0 1 -0.61,-1.84 z"
         transform="translate(1202.04,-514.96)"
         fill="#36b55a"
         id="path12-7" /><path
         d="m 1884.23,1077.84 c 2.25,-1.93 5,-2 7.55,-2.48 27.26,-4.92 52.08,-16.18 76.12,-29.38 14.55,-8 27.9,-18 40.8,-28.21 10.59,-8.42 19.31,-19.17 29,-28.8 27.22,-27.23 49.15,-58.58 69.91,-90.74 13.82,-21.41 26.65,-43.43 39.09,-65.71 q 17.46,-31.28 35.27,-62.37 c 17.24,-30.11 35.38,-59.7 55.08,-88.24 a 489.69,489.69 0 0 1 71.07,-81.78 c 33.88,-31.29 73.42,-51.88 118.11,-63 a 304.6,304.6 0 0 1 74,-9.35 c 8.14,0 8.31,0.16 8.31,8.34 -0.07,93 0.1,186 -0.44,279 -0.2,33.86 -8.81,66.27 -21.3,97.61 a 324.79,324.79 0 0 1 -75.52,113.28 c -31.67,30.93 -67.71,54.91 -110.79,67.31 a 190.47,190.47 0 0 1 -52.82,7.53 q -147.49,0.15 -295,0 c -23.47,0 -45.83,-4.42 -65.45,-18.32 -1.31,-0.97 -2.95,-1.77 -2.99,-4.69 z"
         transform="translate(1202.04,-514.96)"
         fill="#36b55a"
         id="path15-3" /><path
         d="m 919.61,933 c 8.29,-20.19 16.72,-38.29 25.1,-56.43 7.2,-15.56 13.06,-31.76 20.63,-47.12 4.58,-9.28 8.66,-18.83 12.82,-28.21 3.64,-8.24 7.84,-16.31 10.84,-24.93 3.73,-10.67 9.58,-20.57 13.9,-31.06 3.68,-9 8.09,-17.56 11.85,-26.47 4.3,-10.15 9.23,-20 13.54,-30.24 4,-9.49 8,-19.06 12.6,-28.24 4.6,-9.18 8.15,-19 13.14,-28.12 4.82,-8.79 7.79,-18.54 12.22,-27.62 4.67,-9.58 8.53,-19.55 12.86,-29.3 4.33,-9.75 8.85,-19.43 13.22,-29.17 0.92,-2.07 1.58,-4.25 2.36,-6.38 3.21,-8.68 8.62,-12.71 18.66,-12 13.59,1 27.32,0.2 41,0.28 8.36,0 8.37,0.14 8.55,8.06 0,1.67 0,3.34 0,5 q 0,273.48 0,547 c 0,14.9 1.37,12.8 -12.61,12.91 -13.98,0.11 -28,-0.2 -42,0.13 -5.33,0.13 -7.24,-1.73 -6.71,-6.84 a 68.05,68.05 0 0 0 0,-7 V 668.59 c -6.2,8.6 -9.38,17.16 -13.18,25.26 -8.66,18.49 -16.59,37.31 -25,55.91 q -28.32,62.52 -56.84,125 -16.56,36.43 -33,72.91 c -8.69,19.18 -17.49,38.31 -26,57.55 -1.82,4.11 -4,6.05 -8.86,5.93 -13.66,-0.34 -27.34,-0.39 -41,0 -4.84,0.15 -7.25,-2.25 -9.36,-5.65 a 28,28 0 0 1 -2.22,-5.42 c -4.63,-13.23 -11.59,-25.43 -17.49,-38.07 -5.47,-11.74 -10.59,-23.69 -16.15,-35.4 -6.38,-13.46 -12.7,-27 -18.73,-40.67 -5.23,-11.84 -10.44,-23.81 -16.59,-35.27 a 76.79,76.79 0 0 1 -5.38,-11.48 c -2.19,-6.52 -6,-12.3 -8.48,-18.57 C 797.82,807 791.11,794 785,780.73 779.6,768.97 774,757.2 768.59,745.43 762.28,731.57 754.72,718.22 749.86,703.68 A 52,52 0 0 0 744,692.46 c -4.31,-6.7 -5.23,-14.78 -9.22,-22.56 -2.29,4 -1.42,7.55 -1.42,10.9 q -0.09,203.49 -0.07,407 c 0,15.17 1.73,13.06 -13.36,13.19 -12.66,0.11 -25.33,0 -38,0 -11.06,0 -9.93,0.7 -10,-10.46 0,-1 0,-2 0,-3 q 0,-273 0,-546 c 0,-15.35 -2.34,-13.42 14,-13.54 13.66,-0.1 27.33,0.14 41,-0.1 4.69,-0.08 7,1.7 8.91,6 13.16,29.16 26.64,58.11 39.94,87.2 q 37.47,81.82 74.88,163.67 c 12.23,26.65 24.71,53.19 37,79.81 8.85,19.15 17.57,38.35 26.4,57.51 1.53,3.28 3.29,6.45 5.55,10.92 z"
         transform="translate(1202.04,-514.96)"
         fill="#0359a9"
         id="path16-6" /><path
         d="m 1716.78,529.37 c -4.22,5.35 -8,10.24 -11.85,15 q -43.58,53.61 -87.21,107.16 -37.72,46.22 -75.72,92.2 c -3.52,4.25 -3.47,7.32 -0.68,12 24.92,42 49.54,84.21 74.26,126.34 q 28.54,48.67 57.11,97.34 34.06,58.06 68.1,116.13 c 0.85,1.45 1.64,2.92 0.41,5.41 h -44.34 c -2.33,0 -4.66,0 -7,0 -6.31,-0.14 -12.88,0.69 -18.88,-0.78 -6.33,-1.56 -6.13,-9.39 -9.41,-14.09 -7.43,-10.65 -13,-22.57 -19.49,-33.89 -6.8,-11.87 -13.85,-23.61 -20.63,-35.49 -6.63,-11.6 -13,-23.37 -19.59,-35 -6.59,-11.63 -13.45,-23.08 -20.15,-34.63 -3.43,-5.93 -6.75,-11.91 -10.19,-17.83 q -15.48,-26.61 -30.44,-53.51 c -8.71,-15.66 -18.57,-30.67 -26.56,-46.79 -4.74,-9.58 -11.1,-18.43 -15.86,-28.11 -1.53,-3.11 -3.56,-2.48 -5.4,-0.4 -5,5.73 -10.11,11.46 -15,17.33 -15,18.12 -29.9,36.37 -45,54.46 q -26.74,32.12 -53.76,64 c -3.42,4 -3.4,8.41 -3.4,13.07 q 0,69.48 0,139 c 0,14.73 1.91,12.5 -12.73,12.64 -14,0.12 -28,-0.14 -42,0.11 -4.75,0.08 -6.84,-1.47 -6.4,-6.27 0.17,-2 0,-4 0,-6 q 0,-273.93 0,-547.88 c 0,-14.43 -1.65,-12.82 12.71,-12.9 14,-0.08 28,0.1 42,-0.07 4.49,-0.05 7,1.08 6.45,6.15 a 62.65,62.65 0 0 0 0,7 v 313.7 c 4.23,-2.27 5.85,-5.18 7.84,-7.63 Q 1510,692 1635.84,536.6 c 5.09,-6.29 10.12,-9.21 18.4,-8.87 17.31,0.71 34.66,0.22 52,0.3 3.16,0.02 6.48,-0.64 10.54,1.34 z"
         transform="translate(1202.04,-514.96)"
         fill="#0359a9"
         id="path17-0" /><path
         d="m 591.52,1100.37 c -3.89,1.23 -8.19,0.56 -12.38,0.58 -15,0.09 -30,-0.12 -45,0.11 -5.27,0.09 -8.12,-1.3 -10,-6.83 -6.91,-20.62 -14.56,-41 -21.8,-61.51 -6.71,-19 -13.42,-38 -19.71,-57.15 -1.07,-3.27 -2.39,-4.33 -5.4,-4.26 -2,0.05 -4,0 -6,0 H 242.35 c -10.16,0 -10.4,-0.07 -13.91,9.74 -11,30.65 -21.74,61.37 -32.59,92.06 -2.64,7.44 -5.43,14.82 -7.93,22.3 -1,3 -1.93,5.58 -5.8,5.57 -20,0 -39.89,0 -60,0 -0.69,-9.54 3.74,-17 6.37,-24.77 6,-17.56 12.94,-34.77 19.34,-52.19 6.31,-17.14 12.3,-34.39 18.61,-51.52 13,-35.34 26.19,-70.62 39.22,-106 10.41,-28.2 20.62,-56.46 31.06,-84.65 15,-40.47 30.51,-80.74 45.07,-121.37 12.06,-33.69 25.4,-66.92 36.5,-101 2.78,-8.5 7.17,-16.49 9.83,-25 1.66,-5.3 4.71,-6.55 9.41,-6.54 13.33,0 26.67,0.32 40,-0.13 5.47,-0.18 6.71,3.17 8.07,6.88 7.11,19.48 14.08,39 21.21,58.48 q 29,79.17 58.13,158.3 39.9,108.83 79.75,217.65 23.26,63.45 46.65,126.86 a 5.76,5.76 0 0 1 0.18,4.39 z m -232.21,-480.65 -2.17,-0.38 q -17.68,49.59 -35.36,99.17 c -11.84,33.2 -23.87,66.34 -35.53,99.6 -11.6,33.07 -24.05,65.87 -35.08,99.64 H 463.94 C 428.85,817.81 394.08,718.77 359.31,619.72 Z"
         transform="translate(1202.04,-514.96)"
         fill="#0359a9"
         id="path18-6" /><path
         d="m -403.79,586.89 q -17.93,17.9 -35.9,35.89 c -2.64,2.65 -5,2.44 -7.79,0.15 -4.35,-3.57 -8.93,-6.87 -13.39,-10.31 -19.74,-15.2 -42,-24.15 -66.21,-30.31 -26.41,-6.72 -52.63,-7.25 -78.95,-3.09 -31.34,4.95 -58,18.84 -75.88,46.37 -7.32,11.24 -11.3,23.74 -13.24,36.87 -2.51,16.95 -2.33,34 1.93,50.58 5.68,22.16 20.16,37.31 40.09,47.84 20.75,11 43,16.49 66,20.06 28.29,4.39 56.78,7.66 84.76,13.84 21,4.63 41.46,10.94 59.62,23 27.73,18.4 47,42.94 56.91,75.17 a 167.18,167.18 0 0 1 3.89,85.69 c -6.94,32.25 -22.54,59.56 -48,81.29 -21.44,18.33 -45.89,29.89 -72.93,37 -43.83,11.48 -87.95,10.29 -132.42,4.93 a 214,214 0 0 1 -53.94,-13.52 218.17,218.17 0 0 1 -58.59,-34.14 c -7.9,-6.51 -15.7,-13 -22.17,-21.1 -2.45,-3 -2.25,-5 0.39,-7.56 11.38,-11.24 22.73,-22.51 33.91,-34 3.58,-3.67 6.15,-2.58 9.13,0.54 9.9,10.34 21.07,19.15 32.86,27.25 23.62,16.23 49.83,25.53 78.08,29.09 27.89,3.52 55.91,4.53 83.56,-1.6 25.73,-5.7 49.5,-15.72 67.55,-36.1 10.28,-11.61 16.95,-24.76 21.06,-40 a 100.3,100.3 0 0 0 3.19,-36.25 c -1.68,-17.2 -6.49,-33.78 -16.52,-48.11 -11.33,-16.17 -27.62,-26 -46.15,-31.6 -35.26,-10.56 -72,-13.7 -108.15,-19.37 a 288.7,288.7 0 0 1 -51.11,-12.51 c -28.82,-10.11 -53.32,-26.1 -71.63,-51 -9.55,-13 -16.66,-27.69 -19.5,-42.94 -4.61,-24.78 -5.77,-50.05 -1.7,-75.49 2.28,-14.22 5.21,-28.07 11.55,-40.79 A 150.24,150.24 0 0 1 -715.34,573.71 152.19,152.19 0 0 1 -672,543 c 20.79,-9.92 42.87,-15.19 65.6,-17.95 a 301,301 0 0 1 81.71,1.59 c 39,5.91 74,20.93 104.86,45.65 5.42,4.37 11.18,8.31 16.04,14.6 z"
         transform="translate(1202.04,-514.96)"
         fill="#0359a9"
         id="path19-2" /><path
         d="m 9.81,1000.93 c 15.5,11.88 29.41,25.06 44,38.41 -10,10.82 -21.16,19.79 -32.34,28.83 -19.22,15.55 -41.42,25.14 -64.69,32 -11,3.26 -22.92,3.75 -34.49,4.59 a 313.82,313.82 0 0 1 -74.63,-3.4 c -30.26,-5 -56.54,-17.38 -79.12,-37.77 -10.52,-9.51 -18.76,-21 -26.89,-32.63 -12.25,-17.51 -19.86,-37.3 -24.49,-57.51 a 347.36,347.36 0 0 1 -8.92,-66.08 476.75,476.75 0 0 1 5.08,-88.64 c 2.68,-17.6 6.79,-34.73 13.87,-50.73 11.31,-25.61 25.4,-49.39 48.06,-67.56 14.87,-11.92 30.66,-21.65 48.49,-27.18 36.12,-11.2 72.84,-12.66 109.79,-3.26 30.25,7.69 56.35,22.37 77.41,45.45 18.54,20.33 30.71,44.31 38.94,70.46 a 271.8,271.8 0 0 1 12,74.48 c 0.33,12 0.06,24 0.25,36 0.06,3.86 -1.4,5.47 -5.23,5.25 -2.66,-0.16 -5.33,0 -8,0 H -215 c -2.67,0 -5.34,0.17 -8,0 -4.5,-0.33 -5.7,1.9 -5.64,6 0.38,25.4 3.63,50.35 13.81,73.78 16.19,37.29 44.3,60 84.75,66.66 26,4.28 51.81,3.71 77,-4.53 14.5,-4.74 27.52,-12.43 39.66,-21.81 8.12,-6.35 15.22,-13.65 23.23,-20.81 z M -115.37,853.86 h 18 q 43.95,0 87.91,0 c 7.83,0 8,-0.15 7.71,-7.49 -0.64,-19.37 -3.3,-38.29 -9.76,-56.78 -26,-74.31 -117.33,-92.1 -172.25,-48.67 -35.11,27.75 -43.52,66.82 -44.57,108.73 -0.07,3 1.23,4.23 4.11,4.19 2.33,0 4.66,0.05 7,0.05 z"
         transform="translate(1202.04,-514.96)"
         fill="#0359a9"
         id="path20-6" /><path
         d="m 2344,518.52 a 8.52,8.52 0 0 0 0.57,1.84 c -3,4.35 -8,2 -11.91,3.1 -22.71,6.13 -44,15.34 -65.09,25.72 -21.09,10.38 -38.85,25 -55.92,40.56 -38.29,35 -68.6,76.44 -95.86,120.25 -17.64,28.34 -33.94,57.48 -50.25,86.59 -27,48.23 -54.21,96.38 -88.24,140.16 -28.3,36.42 -60,69.39 -99.3,94.25 -7.75,4.9 -16.28,8.57 -25.22,13.21 -5.3,-11 -10.59,-21.5 -12.42,-34.06 -2.84,-19.39 -1.85,-38.56 0.5,-57.65 1.55,-12.58 5.63,-24.86 8.77,-37.23 4.28,-16.87 10.38,-33.14 17.26,-49.1 7.74,-18 15.36,-35.93 25.59,-52.82 7.46,-12.3 14.62,-24.83 22.41,-36.93 a 429.85,429.85 0 0 1 35.43,-47.55 c 12.46,-14.49 25.11,-28.94 38.84,-42.21 10.37,-10 21,-19.92 32.16,-29.23 10.26,-8.54 20.48,-17.17 31.06,-25.34 18.43,-14.25 38.06,-26.7 58.11,-38.52 a 564.41,564.41 0 0 1 63.51,-32.11 535.82,535.82 0 0 1 57.19,-20.94 C 2268.05,529.38 2305.46,521 2344,518.52 Z"
         transform="translate(1202.04,-514.96)"
         fill="#00bce3"
         id="path21-1" /></g></g><g
     inkscape:label="Robot"
     inkscape:groupmode="layer"
     id="layer1"
     transform="translate(-2.0970235,-1.8908555)"><g
       id="g1"
       transform="translate(-51.379457,-71.297206)"><g
         id="layer2"
         inkscape:label="Creator3"
         style="display:inline"><rect
           style="display:inline;fill:#1fb53a;fill-opacity:1;stroke:#3b4651;stroke-width:0.491468;stroke-dasharray:none;stroke-opacity:1"
           id="rect1"
           width="99.808533"
           height="18.208532"
           x="57.345734"
           y="173.54573"
           inkscape:label="body" /><ellipse
           style="display:inline;fill:#36b55a;fill-opacity:1;stroke:#3b4651;stroke-width:0.5;stroke-dasharray:none;stroke-opacity:1"
           id="path1"
           cx="107.25"
           cy="190.25"
           rx="50"
           ry="30"
           inkscape:label="edge1" /><ellipse
           style="display:inline;fill:#36b55a;fill-opacity:1;stroke:#3b4651;stroke-width:0.497143;stroke-dasharray:none;stroke-opacity:1"
           id="path1-9"
           cx="107.25"
           cy="185.05"
           rx="50.001431"
           ry="30.001429"
           inkscape:label="edge2" /><ellipse
           style="display:inline;fill:#36b55a;fill-opacity:1;stroke:#3b4651;stroke-width:0.497151;stroke-dasharray:none;stroke-opacity:1"
           id="path1-9-1"
           cx="107.24996"
           cy="175.70001"
           rx="50.001423"
           ry="33.651413"
           inkscape:label="edge3" /><ellipse
           style="display:inline;fill:#36b55a;fill-opacity:1;stroke:#3b4651;stroke-width:0.499923;stroke-dasharray:none;stroke-opacity:1"
           id="path1-9-7"
           cx="107.3"
           cy="173.14999"
           rx="44.050037"
           ry="26.400038"
           inkscape:label="edge4" /><path
           style="display:inline;fill:#36b55a;fill-opacity:1;stroke:#3b4651;stroke-width:0.499999;stroke-dasharray:none;stroke-opacity:1"
           d="m 98,194.5 2.5,4.5 c 0,0 1.9435,-3.2 6.5,-3.2 4.5565,0 6.5,3.2 6.5,3.2 l 2.5,-4.5"
           id="path3"
           sodipodi:nodetypes="cczcc" /><path
           style="display:inline;fill:#00bce3;fill-opacity:1;stroke:#3b4651;stroke-width:0.499999;stroke-dasharray:none;stroke-opacity:1"
           d="m 98,194.5 c 0,0 -32.937553,-5.27719 -32,-22.25 0.85762,-15.52576 25.452209,-22.02434 41,-22.25 16.43354,-0.23851 40.1943,5.83449 41,22.25 0.83438,16.99999 -32,22.25 -32,22.25 0,0 -3.04589,-3 -9,-3 -5.95411,0 -9,3 -9,3 z"
           id="path2"
           sodipodi:nodetypes="csssczc"
           inkscape:label="top" /><path
           style="display:inline;fill:#00bce3;fill-opacity:1;stroke:#3b4651;stroke-width:0.499999;stroke-dasharray:none;stroke-opacity:1"
           d="m 97,174.5 h 20 c 0,0 8.5,-0.0339 8.5,6.25 0,6.28391 -8.5,6.25 -8.5,6.25 H 97 c 0,0 -8.5,-0.0116 -8.5,-6.25 0,-6.23837 8.5,-6.25 8.5,-6.25 z"
           id="path4"
           sodipodi:nodetypes="cczcczc"
           inkscape:label="buttonsTop" /><path
           style="display:inline;fill:#00bce3;fill-opacity:1;stroke:#3b4651;stroke-width:0.499999;stroke-dasharray:none;stroke-opacity:1"
           d="m 97,176.5 h 20 c 0,0 7,-0.25123 7,5.25 0,5.50123 -7,5.25 -7,5.25 H 97 c 0,0 -7,0.26626 -7,-5.25 0,-5.51626 7,-5.25 7,-5.25 z"
           id="path5"
           sodipodi:nodetypes="cczcczc"
           inkscape:label="buttonsBottom" /><ellipse
           style="display:inline;fill:#00bce3;fill-opacity:1;stroke:#3b4651;stroke-width:0.506308;stroke-dasharray:none;stroke-opacity:1"
           id="path6"
           cx="95.900002"
           cy="182.25"
           rx="1.746846"
           ry="1.4968455"
           inkscape:label="button1" /><ellipse
           style="display:inline;fill:#00bce3;fill-opacity:1;stroke:#3b4651;stroke-width:0.506308;stroke-dasharray:none;stroke-opacity:1"
           id="path6-2"
           cx="118.3"
           cy="182.25"
           rx="1.746846"
           ry="1.4968455"
           inkscape:label="button2" /><ellipse
           style="display:inline;fill:#00bce3;fill-opacity:1;stroke:#3b4651;stroke-width:0.547047;stroke-dasharray:none;stroke-opacity:1"
           id="path6-2-3"
           cx="107"
           cy="182"
           rx="5.7264767"
           ry="3.7264762"
           inkscape:label="button3" /><path
           style="display:inline;fill:#36b55a;fill-opacity:1;stroke:#3b4651;stroke-width:0.499999;stroke-dasharray:none;stroke-opacity:1"
           d="m 103.85,198.5 v 2.7 c 0,0 0.97341,1.3 2.95,1.3 1.97659,0 2.95,-1.3 2.95,-1.3 v -2.7 z"
           id="path9"
           sodipodi:nodetypes="cczccc" /><ellipse
           style="display:inline;fill:#36b55a;fill-opacity:1;stroke:#3b4651;stroke-width:0.507024;stroke-dasharray:none;stroke-opacity:1"
           id="path8"
           cx="106.8"
           cy="198.39999"
           rx="2.9464881"
           ry="2.1464882" /></g><g
         id="layer3"
         inkscape:label="Turtlebot4"
         style="display:inline"><path
           style="display:inline;fill:#36b55a;fill-opacity:1;stroke:#3b4651;stroke-width:0.5;stroke-dasharray:none;stroke-opacity:1"
           d="m 65.5,154.3 c 0,0 0.5,11.64085 0.5,17.4 0,3.34873 0.750936,7.7015 3,9 2.979829,1.72041 11.157429,0.64765 15.5,-1.1 1.999505,-0.80469 3.074366,-3.13176 5,-4.1 2.455772,-1.2348 5.251263,-2 8,-2 h 19 c 2.74873,0 5.54423,0.7652 8,2 1.92563,0.96824 3.00049,3.29531 5,4.1 4.34257,1.74765 14.07289,2.52711 15.5,1.1 2.92894,-2.92894 3,-5.6459 3,-9 0,-5.56177 0.5,-17.4 0.5,-17.4 H 107 Z"
           id="path10"
           sodipodi:nodetypes="cssssssssssccc"
           inkscape:label="body" /><path
           style="display:inline;fill:#36b55a;fill-opacity:1;stroke:#3b4651;stroke-width:0.499999;stroke-dasharray:none;stroke-opacity:1"
           d="m 69,167 c 4.10838,2.8777 10.299041,0.54957 15,-1.2 1.743288,-0.6488 2.822391,-2.49649 4.5,-3.3 2.333511,-1.11766 4.934571,-1.66382 7.5,-2 6.94066,-0.90953 14.05934,-0.90953 21,0 2.56543,0.33618 5.16649,0.88234 7.5,2 1.67761,0.80351 2.75671,2.6512 4.5,3.3 4.70096,1.74957 10.79123,3.92878 15,1.2 1.73116,-1.12241 5.28024,-9.78812 4.5,-12.7 -3.47017,-12.95087 -16.42653,-22.8 -41.5,-22.8 -25.073468,0 -37.627409,8.34729 -41.5,22.8 -1.05244,3.92776 1.83797,11.53584 3.5,12.7 z"
           id="path11"
           sodipodi:nodetypes="ssssssssszss"
           inkscape:label="top" /><rect
           style="display:inline;fill:#00bce3;fill-opacity:1;stroke:#3b4651;stroke-width:0.50974;stroke-dasharray:none;stroke-opacity:1"
           id="rect22"
           width="9.6902609"
           height="4.2902598"
           x="102.25487"
           y="153.85486"
           inkscape:label="display" /><ellipse
           style="display:inline;fill:#00bce3;fill-opacity:1;stroke:#3b4651;stroke-width:0.499999;stroke-dasharray:none;stroke-opacity:1"
           id="path23"
           cx="99.25"
           cy="153.55"
           rx="1"
           ry="0.80000001"
           inkscape:label="button1" /><ellipse
           style="display:inline;fill:#00bce3;fill-opacity:1;stroke:#3b4651;stroke-width:0.499999;stroke-dasharray:none;stroke-opacity:1"
           id="path23-5"
           cx="99.25"
           cy="156.05"
           rx="1"
           ry="0.80000001"
           inkscape:label="button2" /><ellipse
           style="display:inline;fill:#00bce3;fill-opacity:1;stroke:#3b4651;stroke-width:0.499999;stroke-dasharray:none;stroke-opacity:1"
           id="path23-5-3"
           cx="115.25"
           cy="153.55"
           rx="1"
           ry="0.80000001"
           inkscape:label="button3" /><ellipse
           style="display:inline;fill:#00bce3;fill-opacity:1;stroke:#3b4651;stroke-width:0.499999;stroke-dasharray:none;stroke-opacity:1"
           id="path23-5-3-3"
           cx="115.25"
           cy="156.05"
           rx="1"
           ry="0.80000001"
           inkscape:label="button4" /><path
           style="display:inline;fill:#00bce3;fill-opacity:1;stroke:#3b4651;stroke-width:0.499999;stroke-dasharray:none;stroke-opacity:1"
           d="m 120.0885,140.71323 -0.0242,7.68977 c 0,0 0.76117,0.61067 1.28277,0.50996 0.44829,-0.0866 1.16431,-0.62942 1.16431,-0.62942 l -0.1592,-7.73277 z"
           id="path21"
           inkscape:label="lidarRod2"
           sodipodi:nodetypes="ccsccc" /><path
           style="display:inline;fill:#00bce3;fill-opacity:1;stroke:#3b4651;stroke-width:0.499999;stroke-dasharray:none;stroke-opacity:1"
           d="m 97.926906,149.34109 -0.03136,-8.37333 1.3882,0.12718 0.01754,8.32391 c 0,0 -0.399583,0.32357 -0.673761,0.35622 -0.283558,0.0338 -0.700622,-0.43398 -0.700622,-0.43398 z"
           id="path22"
           inkscape:label="lidarRod1"
           sodipodi:nodetypes="ccccsc" /><path
           style="display:inline;fill:#00bce3;fill-opacity:1;stroke:#3b4651;stroke-width:0.499999;stroke-dasharray:none;stroke-opacity:1"
           d="m 125.99223,138.87082 c 0,3.3969 -11.69545,6.50271 -18,6 -2.30181,-0.18354 -11.500004,-1.67629 -11.500004,-6 0,-4.32371 7.189974,-5.65633 11.500004,-6 6.30455,-0.5027 18,2.6031 18,6 z"
           id="path20"
           sodipodi:nodetypes="zsssz"
           inkscape:label="lidarBase" /><path
           style="display:inline;fill:#00bce3;fill-opacity:1;stroke:#3b4651;stroke-width:0.499999;stroke-dasharray:none;stroke-opacity:1"
           d="m 126,137.5 c 0,3.3969 -11.69545,6.50271 -18,6 -2.30181,-0.18354 -11.5,-1.67629 -11.5,-6 0,-4.32371 7.18997,-5.65633 11.5,-6 6.30455,-0.5027 18,2.6031 18,6 z"
           id="path19"
           sodipodi:nodetypes="zsssz"
           inkscape:label="lidarBase" /><ellipse
           style="display:inline;fill:#00bce3;fill-opacity:1;stroke:#3b4651;stroke-width:0.506308;stroke-dasharray:none;stroke-opacity:1"
           id="ellipse20"
           cx="122"
           cy="137.14999"
           rx="1.746846"
           ry="1.4968455"
           inkscape:label="lidarMotor" /><path
           style="display:inline;fill:#00bce3;fill-opacity:1;stroke:#3b4651;stroke-width:0.499999;stroke-dasharray:none;stroke-opacity:1"
           d="m 96.5,131.5 v 6.9 c 0,0 2.581687,4.8 10.6,4.8 8.01831,0 10.6,-4.8 10.6,-4.8 v -6.9 z"
           id="path18"
           sodipodi:nodetypes="cczccc"
           inkscape:label="lidarBody" /><ellipse
           style="display:inline;fill:#00bce3;fill-opacity:1;stroke:#3b4651;stroke-width:0.500977;stroke-dasharray:none;stroke-opacity:1"
           id="path17"
           cx="107.1"
           cy="131.39999"
           rx="10.649511"
           ry="5.6495118"
           inkscape:label="lidarTop" /><path
           style="fill:#00bce3;fill-opacity:1;stroke:#3b4651;stroke-width:0.499999;stroke-dasharray:none;stroke-opacity:1"
           d="m 64.732145,101.06336 5.694541,59.71798 c 0,0 1.007465,0.57319 1.645854,0.5114 0.567733,-0.0549 1.572974,-0.72412 1.572974,-0.72412 l -6.435168,-59.91694 z"
           id="path12"
           inkscape:label="rod1"
           sodipodi:nodetypes="ccsccc" /><path
           style="fill:#00bce3;fill-opacity:1;stroke:#3b4651;stroke-width:0.499999;stroke-dasharray:none;stroke-opacity:1"
           d="m 78.571205,82.465017 3.594193,57.056113 c 0,0 0.670874,0.34806 1.121754,0.30806 0.411287,-0.0365 1.147181,-0.45143 1.147181,-0.45143 L 80.674574,82.347312 Z"
           id="path13"
           inkscape:label="rod2"
           sodipodi:nodetypes="ccsccc" /><path
           style="fill:#00bce3;fill-opacity:1;stroke:#3b4651;stroke-width:0.499999;stroke-dasharray:none;stroke-opacity:1"
           d="m 133.07676,82.661608 -3.04107,57.602572 c 0,0 0.42385,0.73397 0.87762,0.84807 0.55515,0.13959 2.01977,-0.22119 2.01977,-0.22119 l 2.49246,-58.145886 z"
           id="path14"
           inkscape:label="rod3"
           sodipodi:nodetypes="ccsccc" /><path
           style="fill:#00bce3;fill-opacity:1;stroke:#3b4651;stroke-width:0.499999;stroke-dasharray:none;stroke-opacity:1"
           d="m 145.36862,100.94835 -4.51914,60.93638 c 0,0 0.75509,0.61697 1.25903,0.68638 0.63074,0.0869 1.47339,-0.54599 1.47339,-0.54599 l 4.42169,-60.92999 z"
           id="path15"
           inkscape:label="rod4"
           sodipodi:nodetypes="ccsccc" /><path
           style="display:inline;fill:#00bce3;fill-opacity:1;stroke:#3b4651;stroke-width:0.499999;stroke-dasharray:none;stroke-opacity:1"
           d="m 78,116.5 h 58 c 0,0 21.37112,-8.28485 18.5,-19 -4.52008,-16.86917 -30.53575,-21 -48,-21 -17.464249,0 -43.47992,4.130831 -48,21 -2.870985,10.71466 19.5,19 19.5,19 z"
           id="path16"
           inkscape:label="plate"
           sodipodi:nodetypes="ccsssc" /></g></g></g></svg>
